<?xml version="1.0" encoding="UTF-8" standalone="no"?>
<!-- Created with Inkscape (http://www.inkscape.org/) -->

<svg
   width="320.60483mm"
   height="54.327713mm"
   viewBox="0 0 320.60483 54.327713"
   version="1.1"
   id="svg1"
   inkscape:version="1.4.2 (f4327f4, 2025-05-13)"
   sodipodi:docname="rotbond-logo.svg"
   xmlns:inkscape="http://www.inkscape.org/namespaces/inkscape"
   xmlns:sodipodi="http://sodipodi.sourceforge.net/DTD/sodipodi-0.dtd"
   xmlns="http://www.w3.org/2000/svg"
   xmlns:svg="http://www.w3.org/2000/svg">
  <sodipodi:namedview
     id="namedview1"
     pagecolor="#ffffff"
     bordercolor="#000000"
     borderopacity="0.25"
     inkscape:showpageshadow="2"
     inkscape:pageopacity="0.0"
     inkscape:pagecheckerboard="0"
     inkscape:deskcolor="#d1d1d1"
     inkscape:document-units="mm"
     inkscape:zoom="0.35589576"
     inkscape:cx="1048.0597"
     inkscape:cy="248.66832"
     inkscape:window-width="1920"
     inkscape:window-height="1013"
     inkscape:window-x="2391"
     inkscape:window-y="-9"
     inkscape:window-maximized="1"
     inkscape:current-layer="layer1" />
  <defs
     id="defs1" />
  <g
     inkscape:label="Layer 1"
     inkscape:groupmode="layer"
     id="layer1"
     transform="translate(57.337469,-62.762399)">
    <g
       id="text1"
       style="font-size:70.5556px;font-family:'Times New Roman';-inkscape-font-specification:'Times New Roman, ';text-align:center;text-anchor:middle;fill:none;stroke:#004e07;stroke-width:4.99999"
       aria-label="Rotbond">
      <path
         style="font-weight:bold;font-family:Orbitron;-inkscape-font-specification:'Orbitron Bold';fill:#2690e3;stroke:none;stroke-width:5"
         d="m -6.1845356,76.802861 v 13.123343 q 0,4.303891 -3.1044465,7.408338 -3.1044469,3.033888 -7.4083379,3.033888 h -0.49389 l 11.0066744,12.98223 v 3.73945 H -17.473432 l -14.040565,-16.72168 -14.534454,0.0706 q 0.211667,0 0.211667,0.42333 -0.141112,0 -0.211667,-0.0705 v 16.29834 H -56.98457 V 66.360632 h 40.28725 q 4.303891,0 7.4083379,3.104447 3.1044465,3.033891 3.1044465,7.337782 z m -39.8639154,0.49389 v 12.065008 h 28.786686 V 77.296751 Z m 57.220649,-1.12889 h 21.025569 q 4.233337,0 7.196672,3.033891 3.033891,3.033891 3.033891,7.196671 v 20.461127 q 0,4.16278 -3.033891,7.19667 -2.963335,3.03389 -7.196672,3.03389 H 11.172198 q -4.1627809,0 -7.1966718,-3.03389 -3.03389092,-3.03389 -3.03389092,-7.19667 V 86.398423 q 0,-4.16278 3.03389092,-7.196671 3.0338909,-3.033891 7.1966718,-3.033891 z m 0.564445,10.795007 V 106.2951 h 19.89668 V 86.962868 Z m 62.935543,0 H 59.502731 V 106.2951 h 15.169455 v 10.79501 H 59.008842 q -4.303892,0 -7.337783,-3.03389 -2.963335,-3.03389 -2.963335,-7.19667 V 64.032297 h 10.795007 v 12.135564 h 15.169455 z"
         id="path1" />
      <path
         style="font-weight:bold;font-family:Orbitron;-inkscape-font-specification:'Orbitron Bold';fill:#008080;stroke:none;stroke-width:5"
         d="m 111.855,76.167861 q 4.23333,0 7.19667,3.033891 3.03389,3.033891 3.03389,7.196671 v 20.461127 q 0,4.16278 -3.03389,7.19667 -2.96334,3.03389 -7.19667,3.03389 H 80.598866 V 62.762296 H 91.393874 V 76.167861 Z M 91.393874,86.962868 V 106.2951 H 111.29055 V 86.962868 Z M 137.67834,76.167861 h 21.02557 q 4.23334,0 7.19667,3.033891 3.03389,3.033891 3.03389,7.196671 v 20.461127 q 0,4.16278 -3.03389,7.19667 -2.96333,3.03389 -7.19667,3.03389 h -21.02557 q -4.16278,0 -7.19667,-3.03389 -3.03389,-3.03389 -3.03389,-7.19667 V 86.398423 q 0,-4.16278 3.03389,-7.196671 3.03389,-3.033891 7.19667,-3.033891 z m 0.56444,10.795007 V 106.2951 h 19.89668 V 86.962868 Z m 67.45118,-10.795007 q 4.23333,0 7.19667,3.033891 3.03389,3.033891 3.03389,7.196671 V 117.09011 H 205.12951 V 86.962868 h -19.89668 v 30.127242 h -10.795 V 76.167861 Z m 46.42551,-13.405565 h 10.79501 v 54.327814 h -31.32669 q -4.23333,0 -7.26722,-3.03389 -2.96334,-3.03389 -2.96334,-7.19667 V 86.398423 q 0,-4.16278 2.96334,-7.196671 3.03389,-3.033891 7.26722,-3.033891 h 20.53168 z M 232.22279,86.962868 V 106.2951 h 19.89668 V 86.962868 Z"
         id="path2" />
    </g>
  </g>
</svg>
